<svg width="269" height="85" viewBox="0 0 269 85" fill="none" xmlns="http://www.w3.org/2000/svg">
<path d="M29.748 32.5813V37.5641H21.5462V63.36H15.3728V37.5641H7.17107V32.5813H29.748ZM55.4182 38.931L40.2934 74.913H33.7232L39.0146 62.7427L29.2254 38.931H36.1484L42.4541 55.996L48.8479 38.931H55.4182ZM62.7146 42.4587C63.5083 41.3416 64.596 40.4156 65.9777 39.6807C67.3888 38.9163 68.9909 38.5342 70.7841 38.5342C72.8713 38.5342 74.7527 39.0486 76.4284 40.0775C78.1334 41.1064 79.4709 42.5763 80.441 44.4871C81.4405 46.3685 81.9403 48.5586 81.9403 51.0573C81.9403 53.5561 81.4405 55.7756 80.441 57.7158C79.4709 59.6266 78.1334 61.1111 76.4284 62.1694C74.7527 63.2277 72.8713 63.7569 70.7841 63.7569C68.9909 63.7569 67.4035 63.3894 66.0218 62.6545C64.6695 61.9195 63.5671 60.9935 62.7146 59.8764V75.0012H56.5412V38.931H62.7146V42.4587ZM75.6346 51.0573C75.6346 49.5875 75.326 48.3234 74.7086 47.2651C74.1207 46.1774 73.327 45.3543 72.3275 44.7958C71.3574 44.2372 70.2991 43.9579 69.1526 43.9579C68.0355 43.9579 66.9772 44.2519 65.9777 44.8399C65.0076 45.3984 64.2139 46.2215 63.5965 47.3092C63.0086 48.3969 62.7146 49.6757 62.7146 51.1455C62.7146 52.6154 63.0086 53.8941 63.5965 54.9818C64.2139 56.0695 65.0076 56.9073 65.9777 57.4953C66.9772 58.0538 68.0355 58.3331 69.1526 58.3331C70.2991 58.3331 71.3574 58.0391 72.3275 57.4512C73.327 56.8633 74.1207 56.0254 74.7086 54.9377C75.326 53.8501 75.6346 52.5566 75.6346 51.0573ZM87.3523 36.0207C86.2647 36.0207 85.3533 35.6827 84.6184 35.0065C83.9129 34.301 83.5601 33.4338 83.5601 32.4049C83.5601 31.376 83.9129 30.5235 84.6184 29.8474C85.3533 29.1418 86.2647 28.7891 87.3523 28.7891C88.44 28.7891 89.3366 29.1418 90.0422 29.8474C90.7771 30.5235 91.1446 31.376 91.1446 32.4049C91.1446 33.4338 90.7771 34.301 90.0422 35.0065C89.3366 35.6827 88.44 36.0207 87.3523 36.0207ZM90.3949 38.931V63.36H84.2216V38.931H90.3949ZM107.827 38.5783C110.737 38.5783 113.089 39.5043 114.882 41.3563C116.675 43.1789 117.572 45.7365 117.572 49.0289V63.36H111.399V49.8668C111.399 47.9265 110.914 46.442 109.943 45.4131C108.973 44.3548 107.65 43.8257 105.975 43.8257C104.27 43.8257 102.918 44.3548 101.918 45.4131C100.948 46.442 100.463 47.9265 100.463 49.8668V63.36H94.2895V38.931H100.463V41.9736C101.286 40.9153 102.33 40.0922 103.594 39.5043C104.887 38.8869 106.298 38.5783 107.827 38.5783ZM130.806 38.5342C132.629 38.5342 134.231 38.9016 135.613 39.6366C136.995 40.3421 138.082 41.2681 138.876 42.4146V38.931H145.093V63.5364C145.093 65.8 144.638 67.8137 143.726 69.5775C142.815 71.3707 141.448 72.7818 139.626 73.8107C137.803 74.8689 135.598 75.3981 133.011 75.3981C129.542 75.3981 126.691 74.5897 124.457 72.9728C122.252 71.356 121.003 69.1512 120.709 66.3585H126.838C127.161 67.4756 127.852 68.3575 128.91 69.0042C129.998 69.6804 131.306 70.0184 132.835 70.0184C134.628 70.0184 136.083 69.4746 137.2 68.3869C138.317 67.3286 138.876 65.7118 138.876 63.5364V59.7442C138.082 60.8906 136.98 61.8461 135.569 62.6104C134.187 63.3747 132.6 63.7569 130.806 63.7569C128.749 63.7569 126.867 63.2277 125.162 62.1694C123.457 61.1111 122.105 59.6266 121.105 57.7158C120.135 55.7756 119.65 53.5561 119.65 51.0573C119.65 48.588 120.135 46.3979 121.105 44.4871C122.105 42.5763 123.443 41.1064 125.118 40.0775C126.823 39.0486 128.719 38.5342 130.806 38.5342ZM138.876 51.1455C138.876 49.6463 138.582 48.3675 137.994 47.3092C137.406 46.2215 136.612 45.3984 135.613 44.8399C134.613 44.2519 133.54 43.9579 132.394 43.9579C131.247 43.9579 130.189 44.2372 129.219 44.7958C128.249 45.3543 127.455 46.1774 126.838 47.2651C126.25 48.3234 125.956 49.5875 125.956 51.0573C125.956 52.5272 126.25 53.8207 126.838 54.9377C127.455 56.0254 128.249 56.8633 129.219 57.4512C130.219 58.0391 131.277 58.3331 132.394 58.3331C133.54 58.3331 134.613 58.0538 135.613 57.4953C136.612 56.9073 137.406 56.0842 137.994 55.0259C138.582 53.9382 138.876 52.6448 138.876 51.1455ZM179.665 42.1059C179.665 43.7522 179.268 45.2955 178.474 46.736C177.71 48.1764 176.49 49.3376 174.815 50.2195C173.168 51.1014 171.081 51.5424 168.553 51.5424H163.394V63.36H157.22V32.5813H168.553C170.934 32.5813 172.963 32.9928 174.638 33.816C176.314 34.6391 177.563 35.7709 178.386 37.2113C179.239 38.6518 179.665 40.2833 179.665 42.1059ZM168.288 46.5596C169.993 46.5596 171.258 46.1774 172.081 45.4131C172.904 44.6194 173.315 43.517 173.315 42.1059C173.315 39.1074 171.64 37.6082 168.288 37.6082H163.394V46.5596H168.288ZM188.017 30.7293V63.36H181.843V30.7293H188.017ZM214.973 38.931V63.36H208.756V60.2733C207.962 61.3316 206.918 62.1694 205.625 62.7868C204.361 63.3747 202.979 63.6687 201.48 63.6687C199.569 63.6687 197.879 63.2718 196.409 62.4781C194.939 61.655 193.778 60.4644 192.925 58.9063C192.102 57.3189 191.691 55.4375 191.691 53.2621V38.931H197.864V52.3802C197.864 54.3204 198.349 55.8197 199.319 56.8779C200.289 57.9068 201.612 58.4213 203.288 58.4213C204.993 58.4213 206.331 57.9068 207.301 56.8779C208.271 55.8197 208.756 54.3204 208.756 52.3802V38.931H214.973ZM228.208 63.7569C226.209 63.7569 224.416 63.4041 222.828 62.6986C221.241 61.9636 219.977 60.9788 219.036 59.7442C218.125 58.5095 217.625 57.1425 217.537 55.6433H223.754C223.872 56.584 224.327 57.363 225.121 57.9803C225.944 58.5977 226.958 58.9063 228.164 58.9063C229.34 58.9063 230.251 58.6712 230.898 58.2008C231.574 57.7305 231.912 57.1278 231.912 56.3929C231.912 55.5992 231.5 55.0112 230.677 54.6291C229.883 54.2175 228.605 53.7766 226.841 53.3062C225.018 52.8653 223.519 52.4096 222.343 51.9392C221.197 51.4689 220.197 50.7487 219.345 49.7786C218.521 48.8085 218.11 47.5003 218.11 45.8541C218.11 44.5018 218.492 43.2671 219.256 42.15C220.05 41.0329 221.167 40.151 222.608 39.5043C224.077 38.8576 225.797 38.5342 227.767 38.5342C230.677 38.5342 232.999 39.2691 234.734 40.739C236.468 42.1794 237.424 44.1343 237.6 46.6037H231.691C231.603 45.6336 231.192 44.8693 230.457 44.3107C229.751 43.7228 228.796 43.4288 227.59 43.4288C226.473 43.4288 225.606 43.6346 224.989 44.0461C224.401 44.4577 224.107 45.0309 224.107 45.7659C224.107 46.589 224.518 47.221 225.342 47.662C226.165 48.0735 227.443 48.4998 229.178 48.9407C230.942 49.3817 232.397 49.8374 233.543 50.3077C234.69 50.7781 235.675 51.513 236.498 52.5125C237.35 53.4826 237.791 54.7761 237.821 56.3929C237.821 57.804 237.424 59.068 236.63 60.1851C235.866 61.3022 234.749 62.1841 233.279 62.8309C231.838 63.4482 230.148 63.7569 228.208 63.7569Z" fill="#C52F24"/>
<path d="M249.486 26.2458H250.673L250.079 24.8077L249.486 26.2458ZM247.44 22.08C246.994 22.08 246.567 22.257 246.252 22.5721C245.937 22.8871 245.76 23.3144 245.76 23.76V31.92C245.76 32.848 246.512 33.6 247.44 33.6H251.686C251.258 32.9315 251.031 32.1539 251.032 31.36C251.032 30.8531 251.123 30.3677 251.289 29.9187H247.44C247.334 29.9187 247.232 29.8766 247.157 29.8016C247.082 29.7265 247.04 29.6248 247.04 29.5187C247.04 29.4126 247.082 29.3109 247.157 29.2359C247.232 29.1609 247.334 29.1187 247.44 29.1187H251.687C252.063 28.5302 252.581 28.0459 253.194 27.7106C253.806 27.3752 254.494 27.1996 255.192 27.2C255.953 27.2 256.666 27.4045 257.28 27.7613V23.76C257.28 22.832 256.528 22.08 255.6 22.08H247.44ZM247.04 31.44C247.04 31.2192 247.219 31.04 247.44 31.04H250.003C250.109 31.04 250.21 31.0821 250.285 31.1572C250.36 31.2322 250.403 31.3339 250.403 31.44C250.403 31.5461 250.36 31.6478 250.285 31.7228C250.21 31.7979 250.109 31.84 250.003 31.84H247.44C247.219 31.84 247.04 31.6608 247.04 31.44ZM250.079 23.3594C250.241 23.3594 250.387 23.457 250.449 23.6067L251.97 27.2886C252.007 27.3861 252.005 27.4943 251.964 27.5902C251.922 27.6861 251.845 27.762 251.749 27.8019C251.652 27.8417 251.544 27.8423 251.447 27.8034C251.35 27.7646 251.273 27.6894 251.23 27.5939L251.004 27.0458H249.156L248.93 27.5939C248.91 27.6437 248.882 27.6892 248.845 27.7276C248.808 27.7661 248.763 27.7968 248.714 27.8179C248.665 27.8389 248.612 27.85 248.559 27.8504C248.506 27.8507 248.453 27.8405 248.404 27.8201C248.354 27.7997 248.31 27.7697 248.272 27.7318C248.234 27.6938 248.205 27.6488 248.185 27.5993C248.165 27.5498 248.155 27.4968 248.156 27.4434C248.157 27.3901 248.169 27.3374 248.19 27.2886L249.709 23.6067C249.74 23.5335 249.791 23.4709 249.857 23.4268C249.923 23.3828 250 23.3593 250.079 23.3594ZM253.999 23.3594C254.22 23.3594 254.399 23.5386 254.399 23.7594V24.64H255.28C255.386 24.64 255.488 24.6821 255.563 24.7572C255.638 24.8322 255.68 24.9339 255.68 25.04C255.68 25.1461 255.638 25.2478 255.563 25.3228C255.488 25.3979 255.386 25.44 255.28 25.44H254.399V26.3194C254.399 26.4254 254.357 26.5272 254.282 26.6022C254.207 26.6772 254.105 26.7194 253.999 26.7194C253.893 26.7194 253.792 26.6772 253.717 26.6022C253.642 26.5272 253.599 26.4254 253.599 26.3194V25.44H252.72C252.614 25.44 252.512 25.3979 252.437 25.3228C252.362 25.2478 252.32 25.1461 252.32 25.04C252.32 24.9339 252.362 24.8322 252.437 24.7572C252.512 24.6821 252.614 24.64 252.72 24.64H253.599V23.7594C253.599 23.5386 253.779 23.3594 253.999 23.3594ZM258.712 31.36C258.712 33.304 257.136 34.88 255.192 34.88C253.248 34.88 251.672 33.304 251.672 31.36C251.672 29.416 253.248 27.84 255.192 27.84C257.136 27.84 258.712 29.416 258.712 31.36ZM255.512 29.12C255.512 29.0351 255.478 28.9537 255.418 28.8937C255.358 28.8337 255.277 28.8 255.192 28.8C255.107 28.8 255.026 28.8337 254.966 28.8937C254.906 28.9537 254.872 29.0351 254.872 29.12V31.04H252.952C252.867 31.04 252.786 31.0737 252.726 31.1337C252.666 31.1937 252.632 31.2751 252.632 31.36C252.632 31.4449 252.666 31.5263 252.726 31.5863C252.786 31.6463 252.867 31.68 252.952 31.68H254.872V33.6C254.872 33.6849 254.906 33.7663 254.966 33.8263C255.026 33.8863 255.107 33.92 255.192 33.92C255.277 33.92 255.358 33.8863 255.418 33.8263C255.478 33.7663 255.512 33.6849 255.512 33.6V31.68H257.432C257.517 31.68 257.598 31.6463 257.658 31.5863C257.718 31.5263 257.752 31.4449 257.752 31.36C257.752 31.2751 257.718 31.1937 257.658 31.1337C257.598 31.0737 257.517 31.04 257.432 31.04H255.512V29.12Z" fill="#C52F24"/>
<path d="M221.268 35.52C222.009 35.52 222.512 35.1577 223.401 34.4064L228.525 30.1332H238.018C242.431 30.1332 244.8 27.8366 244.8 23.7576V13.0951C244.8 9.01666 242.431 6.72 238.018 6.72H218.943C214.545 6.72 212.16 9.003 212.16 13.0951V23.7576C212.16 27.8502 214.544 30.1332 218.943 30.1332H219.654V33.7519C219.654 34.8239 220.246 35.52 221.268 35.52ZM221.875 32.9727V28.9359C221.875 28.1846 221.579 27.8918 220.764 27.8918H218.957C215.951 27.8918 214.544 26.4581 214.544 23.7439V13.0951C214.544 10.3809 215.951 8.96142 218.958 8.96142H238.018C241.009 8.96142 242.415 10.3809 242.415 13.0951V23.7439C242.415 26.4581 241.009 27.8918 238.018 27.8918H228.421C227.606 27.8918 227.177 28.0034 226.614 28.5463L221.875 32.9727Z" fill="#C52F24"/>
<path d="M253.932 44.16C253.192 44.16 252.688 43.7977 251.8 43.0464L246.675 38.7732H237.183C232.77 38.7732 230.4 36.4766 230.4 32.3976V21.7351C230.4 17.6567 232.77 15.36 237.183 15.36H256.258C260.655 15.36 263.04 17.643 263.04 21.7351V32.3976C263.04 36.4902 260.656 38.7732 256.258 38.7732H255.547V42.3919C255.547 43.4639 254.954 44.16 253.932 44.16ZM253.326 41.6127V37.5759C253.326 36.8246 253.621 36.5318 254.436 36.5318H256.243C259.249 36.5318 260.656 35.0981 260.656 32.3839V21.7351C260.656 19.0209 259.249 17.6014 256.242 17.6014H237.183C234.191 17.6014 232.785 19.0209 232.785 21.7351V32.3839C232.785 35.0981 234.191 36.5318 237.183 36.5318H246.779C247.594 36.5318 248.023 36.6434 248.587 37.1863L253.326 41.6127Z" fill="#C52F24"/>
<path d="M218.88 19.84H226.56V21.12H218.88V19.84ZM218.88 17.92V19.2H216.32V17.92H218.88ZM219.52 19.2V17.92H221.44V19.2H219.52ZM222.08 19.2V17.92H223.36V19.2H222.08ZM224 19.2V17.92H225.92V19.2H224ZM226.56 19.2V17.92H229.12V19.2H226.56ZM216.32 16H218.24V17.28H216.32V16ZM227.2 17.28V16H229.12V17.28H227.2ZM226.56 17.28H225.28V16H226.56V17.28ZM220.16 17.28H218.88V16H220.16V17.28ZM222.72 17.28H220.8V16H222.72V17.28ZM224.64 17.28H223.36V16H224.64V17.28ZM216.32 15.36V14.08H217.6V15.36H216.32ZM218.24 15.36V14.08H219.52V15.36H218.24ZM220.16 15.36V14.08H221.44V15.36H220.16ZM222.08 15.36V14.08H223.36V15.36H222.08ZM224 15.36V14.08H225.28V15.36H224ZM225.92 15.36V14.08H229.12V15.36H225.92Z" fill="#C52F24"/>
<g clip-path="url(#clip0_40_368)">
<path fill-rule="evenodd" clip-rule="evenodd" d="M236.164 20.8466C236.356 20.6592 236.615 20.5558 236.884 20.5591C237.152 20.5625 237.408 20.6724 237.596 20.8646C237.783 21.0569 237.887 21.3157 237.883 21.5842C237.88 21.8526 237.77 22.1088 237.578 22.2962L237.538 22.332L237.24 22.5864L238.224 23.7343C238.303 23.5692 238.382 23.3786 238.461 23.1586C238.493 23.0686 238.56 22.9951 238.646 22.9543C238.732 22.9134 238.831 22.9085 238.921 22.9406C239.011 22.9728 239.085 23.0393 239.126 23.1257C239.166 23.212 239.171 23.311 239.139 23.401C239.025 23.7214 238.904 23.9981 238.777 24.2362L238.729 24.3235L239.073 24.7255C239.134 24.7956 239.165 24.8861 239.16 24.9783C239.155 25.0706 239.115 25.1575 239.048 25.2212C238.981 25.2848 238.893 25.3203 238.8 25.3202C238.708 25.3201 238.619 25.2846 238.552 25.2209L238.527 25.194L238.299 24.9288C238.228 25.0074 238.15 25.0808 238.068 25.1484C237.656 25.4861 237.236 25.56 236.88 25.56C236.105 25.56 235.32 24.9418 235.32 24C235.32 23.7274 235.423 23.4761 235.547 23.2697C235.672 23.0606 235.833 22.8715 235.985 22.716C236.044 22.656 236.103 22.5994 236.16 22.5478L236.215 22.4974L236.072 22.3298C235.903 22.1334 235.812 21.8823 235.815 21.6236C235.818 21.3648 235.916 21.1161 236.089 20.9239L236.127 20.8838L236.164 20.8466ZM236.684 23.0443C236.625 23.0971 236.562 23.1562 236.5 23.2198C236.371 23.3518 236.251 23.4958 236.165 23.6393C236.077 23.7857 236.04 23.9066 236.04 24C236.04 24.4982 236.455 24.84 236.88 24.84C237.124 24.84 237.364 24.7939 237.612 24.5914C237.667 24.5462 237.724 24.4925 237.782 24.4274L237.826 24.377L236.684 23.0443ZM237.087 21.3559C237.036 21.305 236.968 21.2746 236.896 21.2706C236.824 21.2666 236.753 21.2893 236.697 21.3343L236.673 21.3559L236.636 21.3929L236.612 21.4193C236.516 21.5381 236.509 21.7073 236.596 21.833L236.618 21.8614L236.772 22.0402L237.07 21.7848L237.094 21.7615C237.146 21.7061 237.174 21.6329 237.172 21.5573C237.171 21.4816 237.14 21.4094 237.087 21.3559H237.087Z" fill="#C52F24"/>
</g>
<defs>
<clipPath id="clip0_40_368">
<rect width="5.76" height="5.76" fill="white" transform="translate(234.24 20.16)"/>
</clipPath>
</defs>
</svg>
